<?xml version="1.0" encoding="UTF-8" standalone="no"?>
<!-- Created with Inkscape (http://www.inkscape.org/) -->

<svg
   width="169mm"
   height="146mm"
   viewBox="0 0 169 146"
   version="1.1"
   id="svg5"
   xml:space="preserve"
   inkscape:version="1.2.2 (732a01da63, 2022-12-09)"
   sodipodi:docname="GC9A01.svg"
   inkscape:export-filename="GC9A01.png"
   inkscape:export-xdpi="66.172386"
   inkscape:export-ydpi="66.172386"
   xmlns:inkscape="http://www.inkscape.org/namespaces/inkscape"
   xmlns:sodipodi="http://sodipodi.sourceforge.net/DTD/sodipodi-0.dtd"
   xmlns="http://www.w3.org/2000/svg"
   xmlns:svg="http://www.w3.org/2000/svg"><sodipodi:namedview
     id="namedview7"
     pagecolor="#505050"
     bordercolor="#eeeeee"
     borderopacity="1"
     inkscape:showpageshadow="0"
     inkscape:pageopacity="0"
     inkscape:pagecheckerboard="0"
     inkscape:deskcolor="#505050"
     inkscape:document-units="mm"
     showgrid="false"
     inkscape:zoom="1.0444209"
     inkscape:cx="403.09419"
     inkscape:cy="237.45216"
     inkscape:window-width="1920"
     inkscape:window-height="1009"
     inkscape:window-x="-8"
     inkscape:window-y="1072"
     inkscape:window-maximized="1"
     inkscape:current-layer="layer3" /><defs
     id="defs2"><rect
       x="286.28305"
       y="185.74887"
       width="395.43445"
       height="157.98228"
       id="rect500" /><rect
       x="286.28305"
       y="185.74887"
       width="395.43445"
       height="157.98228"
       id="rect500-5" /><rect
       x="286.28305"
       y="185.74887"
       width="395.43445"
       height="157.98228"
       id="rect500-5-7" /></defs><g
     inkscape:groupmode="layer"
     id="layer3"
     inkscape:label="linie"><path
       style="opacity:1;fill:none;fill-opacity:1;stroke:#000000;stroke-width:0.502474;stroke-linecap:round;stroke-linejoin:round;stroke-miterlimit:32.2;stroke-dasharray:none;stroke-opacity:1"
       id="path3482"
       sodipodi:type="arc"
       sodipodi:cx="98.691399"
       sodipodi:cy="72.816956"
       sodipodi:rx="64.432823"
       sodipodi:ry="64.396507"
       sodipodi:start="3.4981271"
       sodipodi:end="2.7628481"
       sodipodi:arc-type="arc"
       d="M 38.310625,50.340725 A 64.432823,64.396507 0 0 1 109.76465,9.3785487 64.432823,64.396507 0 0 1 163.12025,72.101844 64.432823,64.396507 0 0 1 111.17157,135.99394 64.432823,64.396507 0 0 1 38.824957,96.62784"
       sodipodi:open="true" /><path
       style="opacity:1;fill:none;fill-opacity:1;stroke:#000000;stroke-width:0.499999;stroke-linecap:round;stroke-linejoin:round;stroke-miterlimit:32.2;stroke-dasharray:none;stroke-opacity:1"
       d="m 38.311747,50.40312 0.447828,46.103967"
       id="path4994"
       sodipodi:nodetypes="cc" /><text
       xml:space="preserve"
       transform="matrix(0,0.26458333,-0.26458333,0,158.98246,-35.879047)"
       id="text498"
       style="font-size:68.0315px;font-family:Arial;-inkscape-font-specification:Arial;white-space:pre;shape-inside:url(#rect500-5-7);display:inline;fill:none;stroke:#000000;stroke-width:1.88976;stroke-linecap:round;stroke-linejoin:round;stroke-miterlimit:32.2;stroke-opacity:1"><tspan
         x="286.2832"
         y="247.02772"
         id="tspan1246">GC9A01</tspan></text></g><path
     style="fill:none;fill-opacity:1;stroke:#000000;stroke-width:0.499999;stroke-linecap:round;stroke-linejoin:round;stroke-miterlimit:32.2;stroke-dasharray:none;stroke-opacity:1"
     id="path8570"
     sodipodi:type="arc"
     sodipodi:cx="35.19936"
     sodipodi:cy="47.760952"
     sodipodi:rx="1.3882691"
     sodipodi:ry="1.3882691"
     sodipodi:start="2.51496"
     sodipodi:end="2.4845366"
     sodipodi:open="true"
     sodipodi:arc-type="arc"
     d="m 34.074853,48.575061 a 1.3882691,1.3882691 0 0 1 0.301868,-1.932392 1.3882691,1.3882691 0 0 1 1.934633,0.287163 1.3882691,1.3882691 0 0 1 -0.27244,1.93676 1.3882691,1.3882691 0 0 1 -1.938777,-0.257701" /><path
     style="fill:none;fill-opacity:1;stroke:#000000;stroke-width:0.499999;stroke-linecap:round;stroke-linejoin:round;stroke-miterlimit:32.2;stroke-dasharray:none;stroke-opacity:1"
     id="path8570-8"
     sodipodi:type="arc"
     sodipodi:cx="35.781536"
     sodipodi:cy="99.485168"
     sodipodi:rx="1.3882691"
     sodipodi:ry="1.3882691"
     sodipodi:start="2.51496"
     sodipodi:end="2.4845366"
     sodipodi:open="true"
     sodipodi:arc-type="arc"
     d="m 34.657029,100.29928 a 1.3882691,1.3882691 0 0 1 0.301868,-1.932394 1.3882691,1.3882691 0 0 1 1.934633,0.287162 1.3882691,1.3882691 0 0 1 -0.27244,1.936762 1.3882691,1.3882691 0 0 1 -1.938777,-0.2577" /><path
     style="fill:none;fill-opacity:1;stroke:#000000;stroke-width:0.499999;stroke-linecap:round;stroke-linejoin:round;stroke-miterlimit:32.2;stroke-dasharray:none;stroke-opacity:1"
     d="M 48.219117,112.94656 C 43.096442,106.82597 33.910952,99.767691 27.127554,98.154779 l 0.01583,-2.17431"
     id="path8440"
     sodipodi:nodetypes="ccc" /><rect
     style="fill:none;fill-opacity:1;stroke:#000000;stroke-width:0.448634;stroke-linecap:round;stroke-linejoin:round;stroke-miterlimit:32.2;stroke-dasharray:none;stroke-opacity:1"
     id="rect8416"
     width="3.0279937"
     height="40.267529"
     x="31.197262"
     y="54.09198" /><path
     style="fill:none;fill-opacity:1;stroke:#000000;stroke-width:0.499999;stroke-linecap:round;stroke-linejoin:round;stroke-miterlimit:32.2;stroke-dasharray:none;stroke-opacity:1"
     d="m 14.847524,98.509817 0.03167,1.852473 1.021237,1.21124 1.013321,-1.20332 v -1.876226"
     id="path8303"
     sodipodi:nodetypes="ccccc" /><path
     style="fill:none;fill-opacity:1;stroke:#000000;stroke-width:0.499999;stroke-linecap:round;stroke-linejoin:round;stroke-miterlimit:32.2;stroke-dasharray:none;stroke-opacity:1"
     d="m 21.132398,75.666257 c -0.03066,-0.08203 0.708872,-3.035512 0.918049,-3.056431 0.531963,1.045118 0.764728,2.063037 0.974027,3.078822"
     id="path8216"
     sodipodi:nodetypes="ccc" /><path
     style="fill:none;fill-opacity:1;stroke:#000000;stroke-width:0.499999;stroke-linecap:round;stroke-linejoin:round;stroke-miterlimit:32.2;stroke-dasharray:none;stroke-opacity:1"
     d="m 17.286191,73.035267 c -0.436764,-0.552281 -0.981412,-0.686515 -1.656967,-0.313481 -0.370073,0.397192 -0.376134,0.744746 -0.08957,1.052396 0.305741,0.238995 0.906686,0.165956 1.25392,0.313481 0.698325,0.545181 0.34736,1.195371 -0.123153,1.332291 -0.566718,0.164916 -1.185449,-0.107114 -1.399465,-0.403045"
     id="path8190"
     sodipodi:nodetypes="ccccsc" /><path
     style="fill:none;fill-opacity:1;stroke:#000000;stroke-width:0.499999;stroke-linecap:round;stroke-linejoin:round;stroke-miterlimit:32.2;stroke-dasharray:none;stroke-opacity:1"
     d="m 16.983251,82.579923 c -0.436764,-0.552281 -0.981412,-0.686515 -1.656967,-0.313481 -0.370073,0.397192 -0.376134,0.744746 -0.08957,1.052396 0.305741,0.238995 0.906686,0.165956 1.25392,0.313481 0.698325,0.545181 0.34736,1.195371 -0.123153,1.332291 -0.566718,0.164916 -1.185449,-0.107114 -1.399465,-0.403045"
     id="path8190-3"
     sodipodi:nodetypes="ccccsc" /><path
     style="fill:none;fill-opacity:1;stroke:#000000;stroke-width:0.499999;stroke-linecap:round;stroke-linejoin:round;stroke-miterlimit:32.2;stroke-dasharray:none;stroke-opacity:1"
     d="m 15.293351,63.387099 v 2.85491 h 1.321094 c 0.281836,-0.07643 0.433807,-0.282721 0.537395,-0.537396 0.02273,-0.55572 0.113731,-1.043159 0,-1.735336 -0.02518,-0.306321 -0.114995,-0.556081 -0.377841,-0.654441 h -1.480648"
     id="path8164"
     sodipodi:nodetypes="ccccccc" /><path
     style="fill:none;fill-opacity:1;stroke:#000000;stroke-width:0.472699;stroke-linecap:round;stroke-linejoin:round;stroke-miterlimit:32.2;stroke-dasharray:none;stroke-opacity:1"
     id="path5075"
     sodipodi:type="arc"
     sodipodi:cx="98.425781"
     sodipodi:cy="72.958694"
     sodipodi:rx="68.256996"
     sodipodi:ry="68.256996"
     sodipodi:start="3.7826389"
     sodipodi:end="2.4845366"
     sodipodi:open="true"
     sodipodi:arc-type="arc"
     d="M 43.719812,32.138669 A 68.256996,68.256996 0 0 1 119.67159,8.0924226 68.256996,68.256996 0 0 1 166.68059,72.41231 68.256996,68.256996 0 0 1 120.70732,137.47653 68.256996,68.256996 0 0 1 44.380316,114.64928" /><path
     style="opacity:1;fill:none;fill-opacity:1;stroke:#000000;stroke-width:0.499999;stroke-linecap:round;stroke-linejoin:round;stroke-miterlimit:32.2;stroke-dasharray:none;stroke-opacity:1"
     d="M 43.723205,32.133349 H 7.4339565 c -2.5178191,-0.0046 -3.4991647,1.247935 -3.3914828,3.391482 v 75.223209 c 0.219537,2.36867 1.1245091,4.08305 3.9572763,3.95727 l 36.335759,-0.0158"
     id="path5099"
     sodipodi:nodetypes="cccccc" /><path
     style="opacity:1;fill:none;fill-opacity:1;stroke:#000000;stroke-width:0.5;stroke-linecap:round;stroke-linejoin:round;stroke-miterlimit:32.2;stroke-dasharray:none;stroke-opacity:1"
     id="path5113"
     sodipodi:type="arc"
     sodipodi:cx="24.585815"
     sodipodi:cy="37.796764"
     sodipodi:rx="5.2608542"
     sodipodi:ry="5.2608542"
     sodipodi:start="2.51496"
     sodipodi:end="2.4845366"
     sodipodi:open="true"
     sodipodi:arc-type="arc"
     d="m 20.324488,40.881837 a 5.2608542,5.2608542 0 0 1 1.143933,-7.322813 5.2608542,5.2608542 0 0 1 7.331302,1.088205 5.2608542,5.2608542 0 0 1 -1.032413,7.339366 5.2608542,5.2608542 0 0 1 -7.347006,-0.976561" /><path
     style="fill:none;fill-opacity:1;stroke:#000000;stroke-width:0.5;stroke-linecap:round;stroke-linejoin:round;stroke-miterlimit:32.2;stroke-dasharray:none;stroke-opacity:1"
     id="path5113-9"
     sodipodi:type="arc"
     sodipodi:cx="24.608221"
     sodipodi:cy="37.819164"
     sodipodi:rx="3.9771285"
     sodipodi:ry="3.9771285"
     sodipodi:start="2.51496"
     sodipodi:end="2.4845366"
     sodipodi:open="true"
     sodipodi:arc-type="arc"
     d="m 21.38672,40.151434 a 3.9771285,3.9771285 0 0 1 0.864797,-5.535939 3.9771285,3.9771285 0 0 1 5.542356,0.822667 3.9771285,3.9771285 0 0 1 -0.780489,5.548453 3.9771285,3.9771285 0 0 1 -5.554229,-0.738266" /><path
     style="fill:none;fill-opacity:1;stroke:#000000;stroke-width:0.5;stroke-linecap:round;stroke-linejoin:round;stroke-miterlimit:32.2;stroke-dasharray:none;stroke-opacity:1"
     id="path5113-5"
     sodipodi:type="arc"
     sodipodi:cx="24.288074"
     sodipodi:cy="108.26704"
     sodipodi:rx="5.2608542"
     sodipodi:ry="5.2608542"
     sodipodi:start="2.51496"
     sodipodi:end="2.4845366"
     sodipodi:open="true"
     sodipodi:arc-type="arc"
     d="m 20.026747,111.35211 a 5.2608542,5.2608542 0 0 1 1.143933,-7.32281 5.2608542,5.2608542 0 0 1 7.331302,1.0882 5.2608542,5.2608542 0 0 1 -1.032413,7.33937 5.2608542,5.2608542 0 0 1 -7.347006,-0.97656" /><path
     style="fill:none;fill-opacity:1;stroke:#000000;stroke-width:0.5;stroke-linecap:round;stroke-linejoin:round;stroke-miterlimit:32.2;stroke-dasharray:none;stroke-opacity:1"
     id="path5113-9-5"
     sodipodi:type="arc"
     sodipodi:cx="24.31048"
     sodipodi:cy="108.28944"
     sodipodi:rx="3.9771285"
     sodipodi:ry="3.9771285"
     sodipodi:start="2.51496"
     sodipodi:end="2.4845366"
     sodipodi:open="true"
     sodipodi:arc-type="arc"
     d="m 21.088979,110.62171 a 3.9771285,3.9771285 0 0 1 0.864797,-5.53594 3.9771285,3.9771285 0 0 1 5.542356,0.82266 3.9771285,3.9771285 0 0 1 -0.780489,5.54846 3.9771285,3.9771285 0 0 1 -5.554229,-0.73827" /><rect
     style="opacity:1;fill:none;fill-opacity:1;stroke:#000000;stroke-width:0.499999;stroke-linecap:round;stroke-linejoin:round;stroke-miterlimit:32.2;stroke-dasharray:none;stroke-opacity:1"
     id="rect5168"
     width="6.9861279"
     height="6.9861279"
     x="6.0232959"
     y="97.425133" /><path
     style="opacity:1;fill:none;fill-opacity:1;stroke:#000000;stroke-width:0.499999;stroke-linecap:round;stroke-linejoin:round;stroke-miterlimit:32.2;stroke-dasharray:none;stroke-opacity:1"
     id="path5170"
     sodipodi:type="arc"
     sodipodi:cx="9.5387516"
     sodipodi:cy="91.603363"
     sodipodi:rx="3.3811066"
     sodipodi:ry="3.3811066"
     sodipodi:start="2.51496"
     sodipodi:end="2.4845366"
     sodipodi:open="true"
     sodipodi:arc-type="arc"
     d="m 6.8000323,93.586113 a 3.3811066,3.3811066 0 0 1 0.7351963,-4.70631 3.3811066,3.3811066 0 0 1 4.7117654,0.69938 3.3811066,3.3811066 0 0 1 -0.663523,4.716949 3.3811066,3.3811066 0 0 1 -4.7218586,-0.627628" /><path
     style="fill:none;fill-opacity:1;stroke:#000000;stroke-width:0.499999;stroke-linecap:round;stroke-linejoin:round;stroke-miterlimit:32.2;stroke-dasharray:none;stroke-opacity:1"
     id="path5170-0"
     sodipodi:type="arc"
     sodipodi:cx="9.5611753"
     sodipodi:cy="82.422913"
     sodipodi:rx="3.3811066"
     sodipodi:ry="3.3811066"
     sodipodi:start="2.51496"
     sodipodi:end="2.4845366"
     sodipodi:open="true"
     sodipodi:arc-type="arc"
     d="m 6.8224561,84.405663 a 3.3811066,3.3811066 0 0 1 0.7351962,-4.70631 3.3811066,3.3811066 0 0 1 4.7117657,0.69938 3.3811066,3.3811066 0 0 1 -0.663523,4.716948 3.3811066,3.3811066 0 0 1 -4.7218589,-0.627627" /><path
     style="fill:none;fill-opacity:1;stroke:#000000;stroke-width:0.499999;stroke-linecap:round;stroke-linejoin:round;stroke-miterlimit:32.2;stroke-dasharray:none;stroke-opacity:1"
     id="path5170-8"
     sodipodi:type="arc"
     sodipodi:cx="9.4492188"
     sodipodi:cy="72.92894"
     sodipodi:rx="3.3811066"
     sodipodi:ry="3.3811066"
     sodipodi:start="2.51496"
     sodipodi:end="2.4845366"
     sodipodi:open="true"
     sodipodi:arc-type="arc"
     d="m 6.7104995,74.91169 a 3.3811066,3.3811066 0 0 1 0.7351962,-4.70631 3.3811066,3.3811066 0 0 1 4.7117653,0.69938 3.3811066,3.3811066 0 0 1 -0.663523,4.716949 3.3811066,3.3811066 0 0 1 -4.7218585,-0.627628" /><path
     style="fill:none;fill-opacity:1;stroke:#000000;stroke-width:0.499999;stroke-linecap:round;stroke-linejoin:round;stroke-miterlimit:32.2;stroke-dasharray:none;stroke-opacity:1"
     id="path5170-3"
     sodipodi:type="arc"
     sodipodi:cx="9.538785"
     sodipodi:cy="63.726059"
     sodipodi:rx="3.3811066"
     sodipodi:ry="3.3811066"
     sodipodi:start="2.51496"
     sodipodi:end="2.4845366"
     sodipodi:open="true"
     sodipodi:arc-type="arc"
     d="m 6.8000657,65.708809 a 3.3811066,3.3811066 0 0 1 0.7351963,-4.70631 3.3811066,3.3811066 0 0 1 4.711766,0.69938 3.3811066,3.3811066 0 0 1 -0.663523,4.716949 A 3.3811066,3.3811066 0 0 1 6.8616458,65.7912" /><path
     style="fill:none;fill-opacity:1;stroke:#000000;stroke-width:0.499999;stroke-linecap:round;stroke-linejoin:round;stroke-miterlimit:32.2;stroke-dasharray:none;stroke-opacity:1"
     id="path5170-9"
     sodipodi:type="arc"
     sodipodi:cx="9.5835667"
     sodipodi:cy="54.523174"
     sodipodi:rx="3.3811066"
     sodipodi:ry="3.3811066"
     sodipodi:start="2.51496"
     sodipodi:end="2.4845366"
     sodipodi:open="true"
     sodipodi:arc-type="arc"
     d="m 6.8448474,56.505925 a 3.3811066,3.3811066 0 0 1 0.7351962,-4.70631 3.3811066,3.3811066 0 0 1 4.7117654,0.699379 3.3811066,3.3811066 0 0 1 -0.663523,4.716949 3.3811066,3.3811066 0 0 1 -4.7218586,-0.627628" /><path
     style="fill:none;fill-opacity:1;stroke:#000000;stroke-width:0.499999;stroke-linecap:round;stroke-linejoin:round;stroke-miterlimit:32.2;stroke-dasharray:none;stroke-opacity:1"
     id="path5170-7"
     sodipodi:type="arc"
     sodipodi:cx="9.538784"
     sodipodi:cy="45.07399"
     sodipodi:rx="3.3811066"
     sodipodi:ry="3.3811066"
     sodipodi:start="2.51496"
     sodipodi:end="2.4845366"
     sodipodi:open="true"
     sodipodi:arc-type="arc"
     d="m 6.8000648,47.05674 a 3.3811066,3.3811066 0 0 1 0.7351962,-4.70631 3.3811066,3.3811066 0 0 1 4.711766,0.69938 3.3811066,3.3811066 0 0 1 -0.663523,4.716949 3.3811066,3.3811066 0 0 1 -4.7218592,-0.627628" /><path
     style="opacity:1;fill:none;fill-opacity:1;stroke:#000000;stroke-width:0.499999;stroke-linecap:round;stroke-linejoin:round;stroke-miterlimit:32.2;stroke-dasharray:none;stroke-opacity:1"
     d="m 15.21498,48.410283 v -3.537847 h 1.589792 c 0.341939,0.173894 0.481952,0.476287 0.495891,0.858909 v 0.52936 c -0.08592,0.518639 -0.427475,0.799911 -0.930884,0.930886 h -1.165995"
     id="path5246"
     sodipodi:nodetypes="ccccccc" /><path
     style="opacity:1;fill:none;fill-opacity:1;stroke:#000000;stroke-width:0.499999;stroke-linecap:round;stroke-linejoin:round;stroke-miterlimit:32.2;stroke-dasharray:none;stroke-opacity:1"
     d="m 16.54727,47.257124 0.637927,1.144291"
     id="path5248"
     sodipodi:nodetypes="cc" /><path
     style="opacity:1;fill:none;fill-opacity:1;stroke:#000000;stroke-width:0.499999;stroke-linecap:round;stroke-linejoin:round;stroke-miterlimit:32.2;stroke-dasharray:none;stroke-opacity:1"
     d="M 20.185879,45.678528 C 19.992068,45.335941 19.827043,45.07337 19.603701,45.085154 l -0.7837,0 c -0.267042,0.07894 -0.518195,0.199194 -0.638156,0.660547 0.0091,0.364276 0.146753,0.668103 0.660548,0.794898 0.487988,0.04835 1.008458,0.07396 1.208559,0.323832 0.160859,0.23952 0.341816,0.384658 0.291089,0.66139 -0.05073,0.276732 -0.25254,0.538144 -0.677052,0.688249 l -0.811401,0.03359 c -0.205831,-0.05964 -0.514126,0.008 -0.663202,-0.56244"
     id="path5250"
     sodipodi:nodetypes="cccccczccc" /><path
     style="opacity:1;fill:none;fill-opacity:1;stroke:#000000;stroke-width:0.499999;stroke-linecap:round;stroke-linejoin:round;stroke-miterlimit:32.2;stroke-dasharray:none;stroke-opacity:1"
     d="m 21.059145,45.085156 h 2.283926"
     id="path5252" /><path
     style="opacity:1;fill:none;fill-opacity:1;stroke:#000000;stroke-width:0.492334;stroke-linecap:round;stroke-linejoin:round;stroke-miterlimit:32.2;stroke-dasharray:none;stroke-opacity:1"
     d="M 22.201108,48.238757 V 45.155918"
     id="path5254" /><path
     style="opacity:1;fill:none;fill-opacity:1;stroke:#000000;stroke-width:0.499999;stroke-linecap:round;stroke-linejoin:round;stroke-miterlimit:32.2;stroke-dasharray:none;stroke-opacity:1"
     d="m 17.219014,54.735864 c -0.07626,-0.184977 -0.221053,-0.301414 -0.386253,-0.397448 -0.288392,-0.169965 -0.535092,-0.273267 -1.091582,-0.05598 -0.11289,0.06767 -0.360129,0.167418 -0.473019,0.405844 v 1.738135 c 0.08575,0.388666 0.314705,0.51478 0.577979,0.577979 0.306828,0.0089 0.542369,-0.0053 1.014612,0 0.172401,-0.03921 0.284258,-0.17932 0.367359,-0.36736"
     id="path5982"
     sodipodi:nodetypes="cccccccc" /><path
     style="opacity:1;fill:none;fill-opacity:1;stroke:#000000;stroke-width:0.499999;stroke-linecap:round;stroke-linejoin:round;stroke-miterlimit:32.2;stroke-dasharray:none;stroke-opacity:1"
     d="m 20.20827,54.679884 c -0.217425,-0.342041 -0.299788,-0.346426 -0.403045,-0.403045 h -1.108377 c -0.192609,0.05212 -0.342292,0.155753 -0.386252,0.386252 v 0.542993 c 0.03994,0.17881 0.162726,0.322111 0.411443,0.411443 h 1.127968 c 0.191017,0.07316 0.278097,0.250262 0.29009,0.502449 l 0.0112,0.496768 c 0.0217,0.312111 -0.259935,0.479984 -0.560831,0.500267 l -0.949592,0 c -0.144954,-0.107114 -0.289909,-0.05782 -0.434863,-0.434864"
     id="path7436"
     sodipodi:nodetypes="cccccccccccc" /><path
     style="opacity:1;fill:none;fill-opacity:1;stroke:#000000;stroke-width:0.499999;stroke-linecap:round;stroke-linejoin:round;stroke-miterlimit:32.2;stroke-dasharray:none;stroke-opacity:1"
     d="m 20.199791,63.877002 c -0.08134,-0.190429 -0.185811,-0.422859 -0.397448,-0.49821 -0.25893,-0.09219 -0.467665,-0.173732 -1.013213,0.06717 -0.45044,0.264833 -0.474611,0.740209 -0.572975,1.2691 0.02394,0.623581 0.169099,1.188599 0.696128,1.457059 0.354017,0.09265 0.612554,0.06405 0.996419,-0.02239 0.167219,-0.1 0.246844,-0.221069 0.324676,-0.380656"
     id="path8188"
     sodipodi:nodetypes="csccccc" /><path
     style="fill:none;fill-opacity:1;stroke:#000000;stroke-width:0.499999;stroke-linecap:round;stroke-linejoin:round;stroke-miterlimit:32.2;stroke-dasharray:none;stroke-opacity:1"
     d="m 20.069786,82.68687 c -0.08134,-0.190429 -0.185811,-0.422859 -0.397448,-0.49821 -0.25893,-0.09219 -0.467665,-0.173732 -1.013213,0.06717 -0.45044,0.264833 -0.474611,0.740209 -0.572975,1.2691 0.02394,0.623581 0.169099,1.188599 0.696128,1.457059 0.354017,0.09265 0.612554,0.06405 0.996419,-0.02239 0.167219,-0.1 0.246844,-0.221069 0.324676,-0.380656"
     id="path8188-4"
     sodipodi:nodetypes="csccccc" /><path
     style="fill:none;fill-opacity:1;stroke:#000000;stroke-width:0.499999;stroke-linecap:round;stroke-linejoin:round;stroke-miterlimit:32.2;stroke-dasharray:none;stroke-opacity:1"
     d="m 19.78479,99.20083 c -0.08134,-0.190429 -0.185811,-0.422859 -0.397448,-0.49821 -0.25893,-0.09219 -0.467665,-0.173732 -1.013213,0.06717 -0.45044,0.264833 -0.474611,0.740209 -0.572975,1.26909 0.02394,0.62359 0.169099,1.1886 0.696128,1.45706 0.354017,0.0926 0.612554,0.064 0.996419,-0.0224 0.167219,-0.1 0.246844,-0.22107 0.324676,-0.38065"
     id="path8188-4-7"
     sodipodi:nodetypes="csccccc" /><path
     style="fill:none;fill-opacity:1;stroke:#000000;stroke-width:0.499999;stroke-linecap:round;stroke-linejoin:round;stroke-miterlimit:32.2;stroke-dasharray:none;stroke-opacity:1"
     d="m 22.808919,99.200853 c -0.08134,-0.190429 -0.185811,-0.422859 -0.397448,-0.49821 -0.25893,-0.09219 -0.467665,-0.173732 -1.013213,0.06717 -0.45044,0.264833 -0.474611,0.740209 -0.572975,1.269087 0.02394,0.62359 0.169099,1.1886 0.696128,1.45706 0.354017,0.0926 0.612554,0.064 0.996419,-0.0224 0.167219,-0.1 0.246844,-0.22107 0.324676,-0.38065"
     id="path8188-4-7-4"
     sodipodi:nodetypes="csccccc" /><path
     style="opacity:1;fill:none;fill-opacity:1;stroke:#000000;stroke-width:0.499999;stroke-linecap:round;stroke-linejoin:round;stroke-miterlimit:32.2;stroke-dasharray:none;stroke-opacity:1"
     d="m 18.204237,72.671402 v 2.910888 c 0,0 1.156499,0.09422 1.545009,-0.291089 0.421935,-0.418452 0.423144,-2.161321 0.05598,-2.384688 -0.427297,-0.259949 -1.016994,-0.259145 -1.600988,-0.235111 z"
     id="path8214"
     sodipodi:nodetypes="ccssc" /><path
     style="opacity:1;fill:none;fill-opacity:1;stroke:#000000;stroke-width:0.478236;stroke-linecap:round;stroke-linejoin:round;stroke-miterlimit:32.2;stroke-dasharray:none;stroke-opacity:1"
     d="m 21.508076,74.216413 h 1.106172"
     id="path8240" /><path
     style="opacity:1;fill:none;fill-opacity:1;stroke:#000000;stroke-width:0.499999;stroke-linecap:round;stroke-linejoin:round;stroke-miterlimit:32.2;stroke-dasharray:none;stroke-opacity:1"
     d="m 21.137236,82.142307 v 2.960799 h 1.804977"
     id="path8295" /><path
     style="opacity:1;fill:none;fill-opacity:1;stroke:#000000;stroke-width:0.499999;stroke-linecap:round;stroke-linejoin:round;stroke-miterlimit:32.2;stroke-dasharray:none;stroke-opacity:1"
     d="m 17.06812,92.022185 c -0.137327,-0.475678 -0.4828,-0.569756 -0.870822,-0.585827 -0.413572,0.006 -0.792759,0.09446 -0.997488,0.60166 v 1.915808 c 0.07397,0.362493 0.345592,0.533305 0.965821,0.601659 0.759615,-0.117061 0.793491,-0.292372 0.886656,-0.617491 l -1e-6,-0.902489 H 16.21313"
     id="path8297"
     sodipodi:nodetypes="cccccccc" /><path
     style="opacity:1;fill:none;fill-opacity:1;stroke:#000000;stroke-width:0.499999;stroke-linecap:round;stroke-linejoin:round;stroke-miterlimit:32.2;stroke-dasharray:none;stroke-opacity:1"
     d="m 18.12894,94.507987 v -2.897463 l 1.899977,2.881631 0.01583,-2.960797"
     id="path8299"
     sodipodi:nodetypes="cccc" /><path
     style="opacity:1;fill:none;fill-opacity:1;stroke:#000000;stroke-width:0.499999;stroke-linecap:round;stroke-linejoin:round;stroke-miterlimit:32.2;stroke-dasharray:none;stroke-opacity:1"
     d="m 21.216401,91.531358 -0.01583,3.039962 h 1.013321 c 0.462583,-0.1008 0.771382,-0.319003 0.794666,-0.968983 l -0.01583,-1.010159 c -0.03061,-0.499692 -0.208752,-0.892561 -0.598356,-1.046838 l -1.209631,-0.03166"
     id="path8301"
     sodipodi:nodetypes="ccccccc" /><path
     style="opacity:1;fill:none;fill-opacity:1;stroke:#000000;stroke-width:0.499999;stroke-linecap:round;stroke-linejoin:round;stroke-miterlimit:32.2;stroke-dasharray:none;stroke-opacity:1"
     d="M 26.82494,52.284002 V 48.007238 C 34.555888,46.698644 40.806884,41.320181 46.641361,34.79629"
     id="path8464"
     sodipodi:nodetypes="ccc" /><path
     style="opacity:1;fill:none;fill-opacity:1;stroke:#000000;stroke-width:0.499999;stroke-linecap:round;stroke-linejoin:round;stroke-miterlimit:32.2;stroke-dasharray:none;stroke-opacity:1"
     d="m 23.460387,87.001922 v 1.70786 c 0.833796,0.48131 2.105118,0.481343 2.501241,1.444093 v 4.407919 c 0.03181,0.696642 0.295578,1.038513 0.685538,1.187389 h 2.444517 c 0.554845,-0.102794 0.923038,-0.384464 0.972032,-0.972032 V 53.028579 c -0.07464,-0.441748 -0.307251,-0.657838 -0.677416,-0.677415 h -1.424151 c -0.700044,0.646746 -1.351495,1.393716 -2.375801,1.371672 h -2.36035 c -0.358081,-0.03392 -0.606855,0.08647 -0.711278,0.410654 v 3.214127 c 0.08492,0.182662 0.04954,0.396831 0.732446,0.422878 h 1.853634 v 1.141372 c -0.167237,0.465069 -0.396648,0.916814 -0.772074,1.337271 -0.285511,0.336185 -0.514509,0.687724 -0.949361,0.949361 l 0,9.52485"
     id="path8466"
     sodipodi:nodetypes="cccccccccccccccccccc" /><path
     style="opacity:1;fill:none;fill-opacity:1;stroke:#000000;stroke-width:0.499999;stroke-linecap:round;stroke-linejoin:round;stroke-miterlimit:32.2;stroke-dasharray:none;stroke-opacity:1"
     d="m 23.376658,82.613201 0,-4.83655"
     id="path8468"
     sodipodi:nodetypes="cc" /></svg>
