<?xml version="1.0" encoding="UTF-8" standalone="no"?>
<!-- Created with Inkscape (http://www.inkscape.org/) -->

<svg
   width="110mm"
   height="57mm"
   viewBox="0 0 110 57"
   version="1.1"
   id="svg5"
   xml:space="preserve"
   inkscape:version="1.2.2 (732a01da63, 2022-12-09)"
   sodipodi:docname="potenciometer.svg"
   inkscape:export-filename="potenciometer.png"
   inkscape:export-xdpi="57.214348"
   inkscape:export-ydpi="57.214348"
   xmlns:inkscape="http://www.inkscape.org/namespaces/inkscape"
   xmlns:sodipodi="http://sodipodi.sourceforge.net/DTD/sodipodi-0.dtd"
   xmlns="http://www.w3.org/2000/svg"
   xmlns:svg="http://www.w3.org/2000/svg"><sodipodi:namedview
     id="namedview7"
     pagecolor="#505050"
     bordercolor="#eeeeee"
     borderopacity="1"
     inkscape:showpageshadow="0"
     inkscape:pageopacity="0"
     inkscape:pagecheckerboard="0"
     inkscape:deskcolor="#505050"
     inkscape:document-units="mm"
     showgrid="false"
     inkscape:zoom="1.0444209"
     inkscape:cx="220.21773"
     inkscape:cy="105.32152"
     inkscape:window-width="1920"
     inkscape:window-height="1009"
     inkscape:window-x="-8"
     inkscape:window-y="1072"
     inkscape:window-maximized="1"
     inkscape:current-layer="layer2"
     showguides="true" /><defs
     id="defs2" /><g
     inkscape:groupmode="layer"
     id="layer2"
     inkscape:label="linie"><path
       style="opacity:1;fill:none;fill-opacity:1;stroke:#000000;stroke-width:0.5;stroke-linecap:round;stroke-linejoin:round;stroke-miterlimit:32.2;stroke-dasharray:none;stroke-opacity:1"
       d="m 46.966684,16.825855 v -4.657419 l 0.850876,-0.850874 h 3.582631 l 0.80609,0.806091 v 5.060465 18.226628 10.165712 l -0.716526,0.716526 h -3.537847 l -0.73329,-1.270098 z"
       id="path1232" /><path
       style="opacity:1;fill:none;fill-opacity:1;stroke:#000000;stroke-width:0.492104;stroke-linecap:round;stroke-linejoin:round;stroke-miterlimit:32.2;stroke-dasharray:none;stroke-opacity:1"
       d="m 52.079766,16.915421 h -5.05374"
       id="path1384" /><path
       style="opacity:1;fill:none;fill-opacity:1;stroke:#000000;stroke-width:0.490742;stroke-linecap:round;stroke-linejoin:round;stroke-miterlimit:32.2;stroke-dasharray:none;stroke-opacity:1"
       d="M 52.03632,35.186831 H 47.226211"
       id="path1386" /><path
       style="opacity:1;fill:none;fill-opacity:1;stroke:#000000;stroke-width:0.499999;stroke-linecap:round;stroke-linejoin:round;stroke-miterlimit:32.2;stroke-dasharray:none;stroke-opacity:1"
       d="M 66.384915,20.709741 66.163252,37.841195"
       id="path1412" /><path
       style="opacity:1;fill:none;fill-opacity:1;stroke:#000000;stroke-width:0.499999;stroke-linecap:round;stroke-linejoin:round;stroke-miterlimit:32.2;stroke-dasharray:none;stroke-opacity:1"
       d="m 64.073277,19.949751 0.095,19.316426"
       id="path1414" /><path
       style="opacity:1;fill:none;fill-opacity:1;stroke:#000000;stroke-width:0.499999;stroke-linecap:round;stroke-linejoin:round;stroke-miterlimit:32.2;stroke-dasharray:none;stroke-opacity:1"
       d="M 61.698306,19.949751 62.521631,38.22119"
       id="path1416"
       sodipodi:nodetypes="cc" /><path
       style="opacity:1;fill:none;fill-opacity:1;stroke:#000000;stroke-width:0.499999;stroke-linecap:round;stroke-linejoin:round;stroke-miterlimit:32.2;stroke-dasharray:none;stroke-opacity:1"
       d="m 59.355004,19.791419 1.013321,18.651435"
       id="path1418"
       sodipodi:nodetypes="cc" /><path
       style="opacity:1;fill:none;fill-opacity:1;stroke:#000000;stroke-width:0.499999;stroke-linecap:round;stroke-linejoin:round;stroke-miterlimit:32.2;stroke-dasharray:none;stroke-opacity:1"
       d="M 57.011701,19.791419 58.02502,38.537851"
       id="path1420"
       sodipodi:nodetypes="cc" /><path
       style="opacity:1;fill:none;fill-opacity:1;stroke:#000000;stroke-width:0.499999;stroke-linecap:round;stroke-linejoin:round;stroke-miterlimit:32.2;stroke-dasharray:none;stroke-opacity:1"
       d="m 54.700063,19.759753 0.949988,18.5881"
       id="path1422"
       sodipodi:nodetypes="cc" /><path
       style="opacity:1;fill:none;fill-opacity:1;stroke:#000000;stroke-width:0.499999;stroke-linecap:round;stroke-linejoin:round;stroke-miterlimit:32.2;stroke-dasharray:none;stroke-opacity:1"
       d="M 53.338412,38.189522 52.261759,20.836407"
       id="path1424"
       sodipodi:nodetypes="cc" /><path
       style="opacity:1;fill:none;fill-opacity:1;stroke:#000000;stroke-width:0.496468;stroke-linecap:round;stroke-linejoin:round;stroke-miterlimit:32.2;stroke-dasharray:none;stroke-opacity:1"
       d="m 72.17632,21.65973 h 32.78164"
       id="path1450" /><path
       style="fill:none;fill-opacity:1;stroke:#000000;stroke-width:0.4941;stroke-linecap:round;stroke-linejoin:round;stroke-miterlimit:32.2;stroke-dasharray:none;stroke-opacity:1"
       d="M 72.348123,34.389571 H 104.81782"
       id="path1450-7" /><path
       style="fill:none;fill-opacity:1;stroke:#000000;stroke-width:0.494811;stroke-linecap:round;stroke-linejoin:round;stroke-miterlimit:32.2;stroke-dasharray:none;stroke-opacity:1"
       d="M 72.253835,36.637876 H 104.81712"
       id="path1450-7-2" /><path
       style="fill:none;fill-opacity:1;stroke:#000000;stroke-width:0.496232;stroke-linecap:round;stroke-linejoin:round;stroke-miterlimit:32.2;stroke-dasharray:none;stroke-opacity:1"
       d="M 72.176086,24.731359 H 104.92653"
       id="path1450-2" /><path
       style="fill:none;fill-opacity:1;stroke:#000000;stroke-width:0.498119;stroke-linecap:round;stroke-linejoin:round;stroke-miterlimit:32.2;stroke-dasharray:none;stroke-opacity:1"
       d="M 72.114644,27.992985 H 105.11464"
       id="path1450-2-3" /><path
       style="fill:none;fill-opacity:1;stroke:#000000;stroke-width:0.49859;stroke-linecap:round;stroke-linejoin:round;stroke-miterlimit:32.2;stroke-dasharray:none;stroke-opacity:1"
       d="M 72.210104,31.222943 H 105.27251"
       id="path1450-2-7" /><path
       style="opacity:1;fill:none;fill-opacity:1;stroke:#000000;stroke-width:0.499999;stroke-linecap:round;stroke-linejoin:round;stroke-miterlimit:32.2;stroke-dasharray:none;stroke-opacity:1"
       d="m 107.3294,21.786395 -2.4383,-0.126667 3.13496,2.881633 -3.19829,0.189997 3.35662,2.6283 -3.10329,0.601659 3.19829,1.741647 -3.07163,1.488313 3.03996,1.203319 -3.51495,1.994974 3.45162,0.158332 -3.41995,2.058308 2.21663,0.158332"
       id="path1579" /><path
       style="opacity:1;fill:none;fill-opacity:1;stroke:#000000;stroke-width:0.499999;stroke-linecap:round;stroke-linejoin:round;stroke-miterlimit:32.2;stroke-dasharray:none;stroke-opacity:1"
       d="m 46.973492,18.17644 h -1.86831"
       id="path1608" /><path
       style="opacity:1;fill:none;fill-opacity:1;stroke:#000000;stroke-width:0.499999;stroke-linecap:round;stroke-linejoin:round;stroke-miterlimit:32.2;stroke-dasharray:none;stroke-opacity:1"
       d="M 47.131824,39.836169 H 45.105182"
       id="path1610" /><path
       style="opacity:1;fill:none;fill-opacity:1;stroke:#000000;stroke-width:0.499999;stroke-linecap:round;stroke-linejoin:round;stroke-miterlimit:32.2;stroke-dasharray:none;stroke-opacity:1"
       d="m 41.431895,11.71652 h 2.818296 l 0.823325,0.823323 v 4.971605 15.674805 11.938183 l -0.414615,0.718135 H 40.830235 V 11.684854 Z"
       id="path1612" /><path
       style="opacity:1;fill:none;fill-opacity:1;stroke:#000000;stroke-width:0.499999;stroke-linecap:round;stroke-linejoin:round;stroke-miterlimit:32.2;stroke-dasharray:none;stroke-opacity:1"
       d="M 45.010183,17.416449 H 40.8619"
       id="path1614" /><path
       style="opacity:1;fill:none;fill-opacity:1;stroke:#000000;stroke-width:0.499999;stroke-linecap:round;stroke-linejoin:round;stroke-miterlimit:32.2;stroke-dasharray:none;stroke-opacity:1"
       d="M 45.105182,33.059587 H 40.8619"
       id="path1616" /><path
       style="opacity:1;fill:none;fill-opacity:1;stroke:#000000;stroke-width:0.499999;stroke-linecap:round;stroke-linejoin:round;stroke-miterlimit:32.2;stroke-dasharray:none;stroke-opacity:1"
       d="M 42.689922,11.653433 V 6.8840581 C 42.63896,4.6298211 41.03704,2.4760255 38.222829,2.4169664 H 19.835496 c -2.89996,0.076023 -4.291093,2.8212797 -4.293491,7.4365457 V 46.696029 c -0.05066,3.504529 1.651929,7.243567 4.169017,7.22095 h 19.329095 c 2.381627,-0.04277 3.972412,-1.693677 3.968739,-3.968737 v -4.14787"
       id="path1618"
       sodipodi:nodetypes="cccccccccc" /><path
       style="opacity:1;fill:none;fill-opacity:1;stroke:#000000;stroke-width:0.499999;stroke-linecap:round;stroke-linejoin:round;stroke-miterlimit:32.2;stroke-dasharray:none;stroke-opacity:1"
       d="M 38.613595,2.438303 V 53.864327"
       id="path1653" /><path
       style="opacity:1;fill:none;fill-opacity:1;stroke:#000000;stroke-width:0.499999;stroke-linecap:round;stroke-linejoin:round;stroke-miterlimit:32.2;stroke-dasharray:none;stroke-opacity:1"
       d="M 33.99032,53.832662 V 2.4699691"
       id="path1655" /><path
       style="opacity:1;fill:none;fill-opacity:1;stroke:#000000;stroke-width:0.55502;stroke-linecap:round;stroke-linejoin:round;stroke-miterlimit:32.2;stroke-dasharray:none;stroke-opacity:1"
       d="M 14.605941,8.9715795 H 9.8763906 C 8.9204206,8.9619598 8.9407022,11.469828 8.0584327,11.484888 H 2.9351499 c -0.8954647,0.306618 -0.886266,1.523939 0,1.83567 h 5.232842 c 0.7393748,-0.0059 0.8568501,2.249302 1.6227273,2.243404 h 4.5937318"
       id="path1657"
       sodipodi:nodetypes="cccccccc" /><path
       style="fill:none;fill-opacity:1;stroke:#000000;stroke-width:0.55502;stroke-linecap:round;stroke-linejoin:round;stroke-miterlimit:32.2;stroke-dasharray:none;stroke-opacity:1"
       d="M 14.70445,24.720662 H 9.9749005 c -0.95597,-0.0096 -0.935689,2.498248 -1.817958,2.513308 H 3.0336596 c -0.8954647,0.306618 -0.886266,1.523939 0,1.83567 h 5.2328419 c 0.739375,-0.0059 0.85685,2.249302 1.622727,2.243404 H 14.48296"
       id="path1657-6"
       sodipodi:nodetypes="cccccccc" /><path
       style="fill:none;fill-opacity:1;stroke:#000000;stroke-width:0.55502;stroke-linecap:round;stroke-linejoin:round;stroke-miterlimit:32.2;stroke-dasharray:none;stroke-opacity:1"
       d="m 14.767783,40.949293 h -4.72955 c -0.9559696,-0.0096 -0.9356886,2.498248 -1.8179576,2.513308 H 3.0969925 c -0.8954648,0.306618 -0.8862661,1.523939 0,1.83567 h 5.2328419 c 0.739375,-0.0059 0.85685,2.249302 1.622727,2.243404 h 4.5937316"
       id="path1657-6-6"
       sodipodi:nodetypes="cccccccc" /></g><path
     style="fill:none;fill-opacity:1;stroke:#000000;stroke-width:0.494684;stroke-linecap:round;stroke-linejoin:round;stroke-miterlimit:32.2;stroke-dasharray:none;stroke-opacity:1"
     d="M 72.053179,19.548637 V 38.115645"
     id="path1426" /><path
     style="fill:none;fill-opacity:1;stroke:#000000;stroke-width:0.499999;stroke-linecap:round;stroke-linejoin:round;stroke-miterlimit:32.2;stroke-dasharray:none;stroke-opacity:1"
     d="m 52.352387,19.80249 1.298702,-1.433052 1.209138,1.612184 1.141963,-1.634575 1.141963,1.5674 1.141965,-1.522617 1.164355,1.522617 1.097179,-1.477834 1.209138,1.545009 1.253919,-1.477835 1.052399,1.500226 1.030007,-0.962832 1.321093,1.679358 1.164355,-0.873266 1.477835,-0.515003 35.915862,0.268697 1.76892,1.276312 0.87327,1.25392 0.515,1.321097 0.15674,11.307674 -0.60457,1.388269 -0.89566,0.918048 -1.79131,1.23153 -1.72414,0.111956 H 69.011615 l -1.588506,-0.264208 -1.26665,-0.284996 -0.03167,1.26665 -0.348329,0.158332 h -1.567482 l -0.237495,0.34833 -0.364162,0.158332 -0.237498,-0.158332 -0.759992,-1.440815 -1.234982,1.551646 -1.060821,-1.393317 -1.361651,1.345819 -1.029153,-1.314151 -1.329984,1.26665 -0.997487,-1.26665 -1.203319,1.298316 -1.076653,-1.599147 -1.029153,0.633327"
     id="path1388"
     sodipodi:nodetypes="ccccccccccccccccccccccccccccccccccccccccccc" /></svg>
