<?xml version="1.0" encoding="UTF-8" standalone="no"?>
<!-- Created with Inkscape (http://www.inkscape.org/) -->

<svg
   width="184mm"
   height="121mm"
   viewBox="0 0 184 121"
   version="1.1"
   id="svg5"
   xml:space="preserve"
   inkscape:version="1.2.2 (732a01da63, 2022-12-09)"
   sodipodi:docname="ST7789(square).svg"
   inkscape:export-filename="ST7789(square).png"
   inkscape:export-xdpi="64.456726"
   inkscape:export-ydpi="64.456726"
   xmlns:inkscape="http://www.inkscape.org/namespaces/inkscape"
   xmlns:sodipodi="http://sodipodi.sourceforge.net/DTD/sodipodi-0.dtd"
   xmlns="http://www.w3.org/2000/svg"
   xmlns:svg="http://www.w3.org/2000/svg"><sodipodi:namedview
     id="namedview7"
     pagecolor="#505050"
     bordercolor="#eeeeee"
     borderopacity="1"
     inkscape:showpageshadow="0"
     inkscape:pageopacity="0"
     inkscape:pagecheckerboard="0"
     inkscape:deskcolor="#505050"
     inkscape:document-units="mm"
     showgrid="false"
     inkscape:zoom="1.0444209"
     inkscape:cx="431.81824"
     inkscape:cy="291.07039"
     inkscape:window-width="1920"
     inkscape:window-height="1009"
     inkscape:window-x="-8"
     inkscape:window-y="1072"
     inkscape:window-maximized="1"
     inkscape:current-layer="layer2" /><defs
     id="defs2"><rect
       x="233.62229"
       y="180.96153"
       width="277.66583"
       height="93.831902"
       id="rect336" /></defs><g
     inkscape:groupmode="layer"
     id="layer2"
     inkscape:label="linie"
     style="display:inline"><circle
       style="opacity:1;fill:none;fill-opacity:1;stroke:#000000;stroke-width:0.499999;stroke-linecap:round;stroke-linejoin:round;stroke-miterlimit:32.2;stroke-dasharray:none;stroke-opacity:1"
       id="path4165"
       cx="12.375893"
       cy="12.533985"
       r="6.5382991" /><circle
       style="opacity:1;fill:none;fill-opacity:1;stroke:#000000;stroke-width:0.5;stroke-linecap:round;stroke-linejoin:round;stroke-miterlimit:32.2;stroke-dasharray:none;stroke-opacity:1"
       id="path4165-3"
       cx="12.375891"
       cy="12.466816"
       r="4.0365496" /><circle
       style="opacity:1;fill:none;fill-opacity:1;stroke:#000000;stroke-width:0.499999;stroke-linecap:round;stroke-linejoin:round;stroke-miterlimit:32.2;stroke-dasharray:none;stroke-opacity:1"
       id="path4165-36"
       cx="12.91984"
       cy="108.55198"
       r="6.5382991" /><circle
       style="opacity:1;fill:none;fill-opacity:1;stroke:#000000;stroke-width:0.5;stroke-linecap:round;stroke-linejoin:round;stroke-miterlimit:32.2;stroke-dasharray:none;stroke-opacity:1"
       id="path4165-3-5"
       cx="12.919838"
       cy="108.48481"
       r="4.0365496" /><circle
       style="opacity:1;fill:none;fill-opacity:1;stroke:#000000;stroke-width:0.499999;stroke-linecap:round;stroke-linejoin:round;stroke-miterlimit:32.2;stroke-dasharray:none;stroke-opacity:1"
       id="path4165-36-9"
       cx="171.53619"
       cy="108.64698"
       r="6.5382991" /><circle
       style="opacity:1;fill:none;fill-opacity:1;stroke:#000000;stroke-width:0.5;stroke-linecap:round;stroke-linejoin:round;stroke-miterlimit:32.2;stroke-dasharray:none;stroke-opacity:1"
       id="path4165-3-5-2"
       cx="171.53619"
       cy="108.57981"
       r="4.0365496" /><circle
       style="opacity:1;fill:none;fill-opacity:1;stroke:#000000;stroke-width:0.499999;stroke-linecap:round;stroke-linejoin:round;stroke-miterlimit:32.2;stroke-dasharray:none;stroke-opacity:1"
       id="path4165-36-2"
       cx="171.72618"
       cy="12.698177"
       r="6.5382991" /><circle
       style="opacity:1;fill:none;fill-opacity:1;stroke:#000000;stroke-width:0.5;stroke-linecap:round;stroke-linejoin:round;stroke-miterlimit:32.2;stroke-dasharray:none;stroke-opacity:1"
       id="path4165-3-5-4"
       cx="171.72618"
       cy="12.631008"
       r="4.0365496" /><path
       style="opacity:1;fill:none;fill-opacity:1;stroke:#000000;stroke-width:0.499999;stroke-linecap:round;stroke-linejoin:round;stroke-miterlimit:32.2;stroke-dasharray:none;stroke-opacity:1"
       d="m 162.47963,84.232285 c 0,0 -0.18124,4.47718 0,4.9716 1.64735,4.49386 3.78751,7.18959 7.9799,8.32823 1.78194,0.48397 5.4466,0.82332 5.4466,0.82332 2.30979,0.38038 4.03046,1.55609 4.65495,4.211625 v 13.39483 c -0.19445,1.08473 -0.83039,1.76194 -2.12164,1.83424 H 6.1510727 c -1.740567,-0.15912 -2.362318,-1.32518 -2.418275,-3.00045 V 5.7493845 c 0.08449,-1.066202 0.136002,-2.15282 1.948055,-2.149578 H 177.85361 c 1.52514,0.069 2.59865,0.689985 2.60963,2.609625 V 17.606447 c -0.20714,2.920507 -1.21939,5.287495 -5.44518,5.445177 0,0 -2.42068,-0.126985 -2.99104,0 -4.91809,1.094956 -7.64907,5.100243 -9.04634,8.044865"
       id="path4333"
       sodipodi:nodetypes="cssccccccccccccsc" /><rect
       style="opacity:1;fill:none;fill-opacity:1;stroke:#000000;stroke-width:0.499999;stroke-linecap:round;stroke-linejoin:round;stroke-miterlimit:32.2;stroke-dasharray:none;stroke-opacity:1"
       id="rect5883"
       width="6.6278648"
       height="6.6278648"
       x="4.8971519"
       y="90.165092" /><circle
       style="opacity:1;fill:none;fill-opacity:1;stroke:#000000;stroke-width:0.499999;stroke-linecap:round;stroke-linejoin:round;stroke-miterlimit:32.2;stroke-dasharray:none;stroke-opacity:1"
       id="path5885"
       cx="8.0767365"
       cy="83.940277"
       r="3.4034982" /><circle
       style="opacity:1;fill:none;fill-opacity:1;stroke:#000000;stroke-width:0.499999;stroke-linecap:round;stroke-linejoin:round;stroke-miterlimit:32.2;stroke-dasharray:none;stroke-opacity:1"
       id="path5885-8"
       cx="8.0767365"
       cy="74.535881"
       r="3.4034982" /><path
       style="opacity:1;fill:none;fill-opacity:1;stroke:#000000;stroke-width:0.499999;stroke-linecap:round;stroke-linejoin:round;stroke-miterlimit:32.2;stroke-dasharray:none;stroke-opacity:1"
       d="m 15.912302,96.597955 -0.482911,0.48291 v 1.17958 l 0.581868,0.58186 h 2.038515 l 0.552183,-0.55218 v -0.91634 l -0.41859,-0.41859 h -1.099413 v 0.65608"
       id="path5989" /><path
       style="opacity:1;fill:none;fill-opacity:1;stroke:#000000;stroke-width:0.499999;stroke-linecap:round;stroke-linejoin:round;stroke-miterlimit:32.2;stroke-dasharray:none;stroke-opacity:1"
       d="m 18.603936,95.822135 h -3.198295 v -0.37999 l 2.996172,-1.72984 h -3.075338"
       id="path5991" /><path
       style="opacity:1;fill:none;fill-opacity:1;stroke:#000000;stroke-width:0.499999;stroke-linecap:round;stroke-linejoin:round;stroke-miterlimit:32.2;stroke-dasharray:none;stroke-opacity:1"
       d="m 15.358142,92.687175 h 3.38829 v -1.15582 l -0.720407,-0.72041 h -2.050391 l -0.629367,0.62937 z"
       id="path5993" /><path
       style="opacity:1;fill:none;fill-opacity:1;stroke:#000000;stroke-width:0.499999;stroke-linecap:round;stroke-linejoin:round;stroke-miterlimit:32.2;stroke-dasharray:none;stroke-opacity:1"
       d="m 15.358142,87.683905 h 2.279972 l 0.949987,-0.94999 -0.918322,-0.91832 H 15.24731"
       id="path5995" /><path
       style="opacity:1;fill:none;fill-opacity:1;stroke:#000000;stroke-width:0.499999;stroke-linecap:round;stroke-linejoin:round;stroke-miterlimit:32.2;stroke-dasharray:none;stroke-opacity:1"
       d="m 16.0548,82.775635 -0.671488,0.38768 v 1.00563 l 0.494075,0.49408 h 1.966557 l 0.666615,-0.66662 v -0.66661 l -0.562888,-0.56289"
       id="path5997" /><path
       style="display:inline;opacity:1;fill:none;fill-opacity:1;stroke:#000000;stroke-width:0.499999;stroke-linecap:round;stroke-linejoin:round;stroke-miterlimit:32.2;stroke-dasharray:none;stroke-opacity:1"
       d="m 16.128486,79.872995 -0.671488,0.38768 v 1.00563 l 0.494075,0.49408 h 1.966557 l 0.666615,-0.66662 v -0.66661 l -0.562888,-0.56289"
       id="path5997-2" /><path
       style="opacity:1;fill:none;fill-opacity:1;stroke:#000000;stroke-width:0.499999;stroke-linecap:round;stroke-linejoin:round;stroke-miterlimit:32.2;stroke-dasharray:none;stroke-opacity:1"
       d="m 16.07855,76.450295 -0.653922,0.37754 v 1.12661 l 0.496018,0.28637 h 0.482483 l 0.447976,-0.44797 v -0.99422 l 0.642234,-0.37079 h 0.865183 l 0.336626,0.58305 v 1.11772 l -0.690808,0.39884"
       id="path6052" /><path
       style="opacity:1;fill:none;fill-opacity:1;stroke:#000000;stroke-width:0.499999;stroke-linecap:round;stroke-linejoin:round;stroke-miterlimit:32.2;stroke-dasharray:none;stroke-opacity:1"
       d="m 15.928135,73.283665 -0.443328,0.44333 v 0.94999 l 0.696658,0.69666 h 1.63873 l 0.708533,-0.70854 v -0.80353 l -0.516557,-0.51655"
       id="path6054" /><path
       style="opacity:1;fill:none;fill-opacity:1;stroke:#000000;stroke-width:0.499999;stroke-linecap:round;stroke-linejoin:round;stroke-miterlimit:32.2;stroke-dasharray:none;stroke-opacity:1"
       d="m 15.207727,72.230765 h 3.514956 v -1.81289"
       id="path6056" /><path
       style="opacity:1;fill:none;fill-opacity:1;stroke:#000000;stroke-width:0.499999;stroke-linecap:round;stroke-linejoin:round;stroke-miterlimit:32.2;stroke-dasharray:none;stroke-opacity:1"
       d="m 16.210425,66.732455 -0.546882,0.31575 v 1.25725 l 0.606153,0.34996 h 0.506113 l 0.482863,-0.48286 v -1.21618 l 0.533504,-0.30802 h 0.668589 l 0.3141,0.54404 v 1.2642 l -0.579462,0.33455"
       id="path6058" /><path
       style="opacity:1;fill:none;fill-opacity:1;stroke:#000000;stroke-width:0.499999;stroke-linecap:round;stroke-linejoin:round;stroke-miterlimit:32.2;stroke-dasharray:none;stroke-opacity:1"
       d="m 15.376344,65.741635 h 3.353118 v -1.20914 l -0.347628,-0.602107 h -2.462497 l -0.616066,0.355687 v 1.45556"
       id="path6060" /><path
       style="opacity:1;fill:none;fill-opacity:1;stroke:#000000;stroke-width:0.499999;stroke-linecap:round;stroke-linejoin:round;stroke-miterlimit:32.2;stroke-dasharray:none;stroke-opacity:1"
       d="M 18.701472,62.819553 H 16.182436 L 15.328762,61.96588 v -0.797694 l 1.093393,-0.631273 h 2.391275"
       id="path6062" /><path
       style="opacity:1;fill:none;fill-opacity:1;stroke:#000000;stroke-width:0.499999;stroke-linecap:round;stroke-linejoin:round;stroke-miterlimit:32.2;stroke-dasharray:none;stroke-opacity:1"
       d="m 16.764613,60.513236 v 2.283926"
       id="path6064" /><path
       style="opacity:1;fill:none;fill-opacity:1;stroke:#000000;stroke-width:0.499999;stroke-linecap:round;stroke-linejoin:round;stroke-miterlimit:32.2;stroke-dasharray:none;stroke-opacity:1"
       d="m 18.835822,58.945836 h -3.336325 v -1.612185 l 0.5234,-0.523399 h 0.848075 l 0.48126,0.833567 v 1.313212"
       id="path6066" /><path
       style="opacity:1;fill:none;fill-opacity:1;stroke:#000000;stroke-width:0.499999;stroke-linecap:round;stroke-linejoin:round;stroke-miterlimit:32.2;stroke-dasharray:none;stroke-opacity:1"
       d="m 17.346789,57.697514 1.475518,-0.85189"
       id="path6068" /><path
       style="opacity:1;fill:none;fill-opacity:1;stroke:#000000;stroke-width:0.499999;stroke-linecap:round;stroke-linejoin:round;stroke-miterlimit:32.2;stroke-dasharray:none;stroke-opacity:1"
       d="m 15.432323,54.064501 v 1.998438 h 3.386703 v -2.015231"
       id="path6070" /><path
       style="opacity:1;fill:none;fill-opacity:1;stroke:#000000;stroke-width:0.499999;stroke-linecap:round;stroke-linejoin:round;stroke-miterlimit:32.2;stroke-dasharray:none;stroke-opacity:1"
       d="m 17.038908,54.915378 v 1.153157"
       id="path6072" /><path
       style="opacity:1;fill:none;fill-opacity:1;stroke:#000000;stroke-width:0.499999;stroke-linecap:round;stroke-linejoin:round;stroke-miterlimit:32.2;stroke-dasharray:none;stroke-opacity:1"
       d="m 16.09287,51.024865 -0.682831,0.394232 v 1.234744 l 0.504643,0.291357 h 0.693191 l 0.45356,-0.45356 V 51.4559 c 0,-0.0056 0.419773,-0.419772 0.419773,-0.419772 h 0.537329 l 0.378084,0.654865 v 1.102797 l -0.463338,0.463338"
       id="path6074" /><path
       style="opacity:1;fill:none;fill-opacity:1;stroke:#000000;stroke-width:0.499999;stroke-linecap:round;stroke-linejoin:round;stroke-miterlimit:32.2;stroke-dasharray:none;stroke-opacity:1"
       d="m 15.337159,49.39029 h 3.543444 v -1.43865 l -0.509405,-0.509405 h -2.479851 l -0.558004,0.322164 z"
       id="path6076" /><path
       style="opacity:1;fill:none;fill-opacity:1;stroke:#000000;stroke-width:0.499999;stroke-linecap:round;stroke-linejoin:round;stroke-miterlimit:32.2;stroke-dasharray:none;stroke-opacity:1"
       d="m 16.311187,44.111509 -0.871632,0.503237 v 1.080958 l 0.514186,0.514186 h 2.283109 l 0.503399,-0.503399 v -1.10237 L 17.85308,44.091914"
       id="path6078" /><path
       style="opacity:1;fill:none;fill-opacity:1;stroke:#000000;stroke-width:0.499999;stroke-linecap:round;stroke-linejoin:round;stroke-miterlimit:32.2;stroke-dasharray:none;stroke-opacity:1"
       d="m 15.561074,37.886691 -0.467422,0.467421 v 1.234326 l 0.677706,0.391274 h 1.894511 l 0.646443,-0.373224 v -1.29436 l -0.634166,-0.366136"
       id="path6080" /><path
       style="opacity:1;fill:none;fill-opacity:1;stroke:#000000;stroke-width:0.499999;stroke-linecap:round;stroke-linejoin:round;stroke-miterlimit:32.2;stroke-dasharray:none;stroke-opacity:1"
       d="m 15.572269,34.942218 -0.503807,0.503806 v 0.895657 l 0.447829,0.447828 h 0.727721 l 0.433834,-0.433832 v -1.066392 l 0.443024,-0.255781 h 0.662553 l 0.407784,0.407784 v 1.202677 l -0.380225,0.380224"
       id="path6082" /><path
       style="opacity:1;fill:none;fill-opacity:1;stroke:#000000;stroke-width:0.499999;stroke-linecap:round;stroke-linejoin:round;stroke-miterlimit:32.2;stroke-dasharray:none;stroke-opacity:1"
       d="m 18.337612,31.146868 h -3.403499 v -1.59539 c 0,-0.02238 0.473019,-0.473017 0.473019,-0.473017 h 0.75851 l 0.460424,0.460423 v 1.613582 -1.62338 l 0.416341,-0.41634 h 0.852975 l 0.392898,0.392901 v 1.652418"
       id="path6084" /><path
       style="opacity:1;fill:none;fill-opacity:1;stroke:#000000;stroke-width:0.499999;stroke-linecap:round;stroke-linejoin:round;stroke-miterlimit:32.2;stroke-dasharray:none;stroke-opacity:1"
       d="m 14.866939,28.03446 h 3.409096 v -1.88088"
       id="path6086" /><path
       style="opacity:1;fill:none;fill-opacity:1;stroke:#000000;stroke-width:0.499999;stroke-linecap:round;stroke-linejoin:round;stroke-miterlimit:32.2;stroke-dasharray:none;stroke-opacity:1"
       d="M 18.309621,25.145964 H 14.945309"
       id="path6088" /><path
       style="opacity:1;fill:none;fill-opacity:1;stroke:#000000;stroke-width:0.499999;stroke-linecap:round;stroke-linejoin:round;stroke-miterlimit:32.2;stroke-dasharray:none;stroke-opacity:1"
       d="m 15.046071,22.88443 1.48903,1.48903 0.170514,0.636368 v -0.681152 l 1.571709,-1.571709"
       id="path6090" /><path
       style="opacity:1;fill:none;fill-opacity:1;stroke:#000000;stroke-width:0.499999;stroke-linecap:round;stroke-linejoin:round;stroke-miterlimit:32.2;stroke-dasharray:none;stroke-opacity:1"
       d="M 161.59298,37.017871 V 18.873096 C 161.7715,8.3312705 155.48062,5.0053165 146.92514,4.2052575 H 41.663889 C 29.849659,4.9959955 23.791259,11.008517 23.560854,22.308292 V 98.808185 C 24.35343,109.01091 29.749208,115.2828 41.165901,116.41324 H 144.12709 c 7.1932,-0.27813 14.66689,0.0515 17.34325,-10.01313 V 84.029845"
       id="path6092"
       sodipodi:nodetypes="cccccccccc" /><path
       style="opacity:1;fill:none;fill-opacity:1;stroke:#000000;stroke-width:0.499999;stroke-linecap:round;stroke-linejoin:round;stroke-miterlimit:32.2;stroke-dasharray:none;stroke-opacity:1"
       d="m 148.8069,4.4506795 c 2.9632,1.140635 6.18511,1.869879 5.62025,8.6207015 v 95.096429 c -0.0687,3.83291 -1.19425,7.12637 -6.94134,8.06092"
       id="path6094"
       sodipodi:nodetypes="cccc" /><path
       style="opacity:1;fill:none;fill-opacity:1;stroke:#000000;stroke-width:0.499999;stroke-linecap:round;stroke-linejoin:round;stroke-miterlimit:32.2;stroke-dasharray:none;stroke-opacity:1"
       d="m 155.30042,87.366165 c -0.007,0.59732 0.21759,1.01354 0.89566,1.07479 h 1.07478 c 0.44993,-0.0644 0.8697,-0.19743 0.99643,-0.99642 V 32.954977 c -0.0337,-0.524727 -0.21036,-0.811056 -0.51269,-0.887997 h -1.20026 c -0.42737,0.02453 -0.85045,0.05732 -0.86944,0.869437 z"
       id="path6096"
       sodipodi:nodetypes="ccccccccc" /><path
       style="opacity:1;fill:none;fill-opacity:1;stroke:#000000;stroke-width:0.499999;stroke-linecap:round;stroke-linejoin:round;stroke-miterlimit:32.2;stroke-dasharray:none;stroke-opacity:1"
       d="m 164.34794,81.819705 h 4.44318 c 0.88589,0.0138 1.26598,-0.4783 1.30821,-1.30821 v -3.13892 c -0.01,-0.80752 -0.42177,-1.27043 -1.31811,-1.31811 h -3.28537 c -0.55436,0.10309 -1.04272,0.32497 -1.17957,1.17957 v 4.03745 c -0.32885,3.24476 -3.97812,3.85052 -4.11662,0 V 39.23451 c 0.42212,-2.828886 4.41646,-2.904668 4.33828,0 v 4.971605 c 0.0534,0.90963 0.53264,1.322545 1.34582,1.345817 h 3.11913 c 1.19381,-0.07521 1.71695,-0.988775 1.89998,-2.327471 l 1.51998,-8.993222 c 0.34997,-3.085203 -1.15925,-3.823575 -3.37246,-3.673287 l -5.43077,0.569993 c -0.65452,0.0998 -1.19203,0.379006 -1.21915,1.440815 v 4.480778"
       id="path6098"
       sodipodi:nodetypes="cccccccccccccccccccc" /><path
       style="opacity:1;fill:none;fill-opacity:1;stroke:#000000;stroke-width:0.499999;stroke-linecap:round;stroke-linejoin:round;stroke-miterlimit:32.2;stroke-dasharray:none;stroke-opacity:1"
       d="m 170.04787,45.282766 -0.095,31.254609"
       id="path6100" /><path
       style="opacity:1;fill:none;fill-opacity:1;stroke:#000000;stroke-width:0.499999;stroke-linecap:round;stroke-linejoin:round;stroke-miterlimit:32.2;stroke-dasharray:none;stroke-opacity:1"
       d="m 164.28461,76.980705 0.31667,-32.331264"
       id="path6102" /><text
       xml:space="preserve"
       transform="matrix(0,-0.26458333,0.26458333,0,29.86649,154.03393)"
       id="text334"
       style="font-size:68.0315px;font-family:Arial;-inkscape-font-specification:Arial;white-space:pre;shape-inside:url(#rect336);fill:none;stroke:#000000;stroke-width:1.88976;stroke-linecap:round;stroke-linejoin:round;stroke-miterlimit:32.2"><tspan
         x="233.62305"
         y="242.24061"
         id="tspan501">ST7789</tspan></text></g><circle
     style="opacity:1;fill:none;fill-opacity:1;stroke:#000000;stroke-width:0.499999;stroke-linecap:round;stroke-linejoin:round;stroke-miterlimit:32.2;stroke-dasharray:none;stroke-opacity:1"
     id="path5885-83"
     cx="7.897604"
     cy="65.444962"
     r="3.4034982" /><circle
     style="opacity:1;fill:none;fill-opacity:1;stroke:#000000;stroke-width:0.499999;stroke-linecap:round;stroke-linejoin:round;stroke-miterlimit:32.2;stroke-dasharray:none;stroke-opacity:1"
     id="path5885-1"
     cx="8.0767345"
     cy="56.309246"
     r="3.4034982" /><circle
     style="opacity:1;fill:none;fill-opacity:1;stroke:#000000;stroke-width:0.499999;stroke-linecap:round;stroke-linejoin:round;stroke-miterlimit:32.2;stroke-dasharray:none;stroke-opacity:1"
     id="path5885-3"
     cx="7.9871693"
     cy="46.770496"
     r="3.4034982" /><circle
     style="opacity:1;fill:none;fill-opacity:1;stroke:#000000;stroke-width:0.499999;stroke-linecap:round;stroke-linejoin:round;stroke-miterlimit:32.2;stroke-dasharray:none;stroke-opacity:1"
     id="path5885-87"
     cx="7.9423885"
     cy="37.321308"
     r="3.4034982" /><circle
     style="opacity:1;fill:none;fill-opacity:1;stroke:#000000;stroke-width:0.499999;stroke-linecap:round;stroke-linejoin:round;stroke-miterlimit:32.2;stroke-dasharray:none;stroke-opacity:1"
     id="path5885-0"
     cx="8.1215191"
     cy="27.872128"
     r="3.4034982" /></svg>
